<svg xmlns="http://www.w3.org/2000/svg" xmlns:xlink="http://www.w3.org/1999/xlink" viewBox="0 0 591 256" id="el_PsNSUTNmA"><style>@-webkit-keyframes kf_el_gWyQ7LQ2fs9_an_ejPH-LF25{42.22%{-webkit-transform: translate(330.69000244140625px, 233.38156127929688px) translate(-330.69000244140625px, -233.38156127929688px) translate(0px, 0px);transform: translate(330.69000244140625px, 233.38156127929688px) translate(-330.69000244140625px, -233.38156127929688px) translate(0px, 0px);}60%{-webkit-transform: translate(330.69000244140625px, 233.38156127929688px) translate(-330.69000244140625px, -233.38156127929688px) translate(100px, -250px);transform: translate(330.69000244140625px, 233.38156127929688px) translate(-330.69000244140625px, -233.38156127929688px) translate(100px, -250px);}0%{-webkit-transform: translate(330.69000244140625px, 233.38156127929688px) translate(-330.69000244140625px, -233.38156127929688px) translate(0px, 0px);transform: translate(330.69000244140625px, 233.38156127929688px) translate(-330.69000244140625px, -233.38156127929688px) translate(0px, 0px);}100%{-webkit-transform: translate(330.69000244140625px, 233.38156127929688px) translate(-330.69000244140625px, -233.38156127929688px) translate(100px, -250px);transform: translate(330.69000244140625px, 233.38156127929688px) translate(-330.69000244140625px, -233.38156127929688px) translate(100px, -250px);}}@keyframes kf_el_gWyQ7LQ2fs9_an_ejPH-LF25{42.22%{-webkit-transform: translate(330.69000244140625px, 233.38156127929688px) translate(-330.69000244140625px, -233.38156127929688px) translate(0px, 0px);transform: translate(330.69000244140625px, 233.38156127929688px) translate(-330.69000244140625px, -233.38156127929688px) translate(0px, 0px);}60%{-webkit-transform: translate(330.69000244140625px, 233.38156127929688px) translate(-330.69000244140625px, -233.38156127929688px) translate(100px, -250px);transform: translate(330.69000244140625px, 233.38156127929688px) translate(-330.69000244140625px, -233.38156127929688px) translate(100px, -250px);}0%{-webkit-transform: translate(330.69000244140625px, 233.38156127929688px) translate(-330.69000244140625px, -233.38156127929688px) translate(0px, 0px);transform: translate(330.69000244140625px, 233.38156127929688px) translate(-330.69000244140625px, -233.38156127929688px) translate(0px, 0px);}100%{-webkit-transform: translate(330.69000244140625px, 233.38156127929688px) translate(-330.69000244140625px, -233.38156127929688px) translate(100px, -250px);transform: translate(330.69000244140625px, 233.38156127929688px) translate(-330.69000244140625px, -233.38156127929688px) translate(100px, -250px);}}@-webkit-keyframes kf_el_Lz3JrUqMbMP_an_Z9BNQqkd7{0%{-webkit-transform: translate(444.64305114746094px, 116.66804885864258px) rotate(0deg) translate(-444.64305114746094px, -116.66804885864258px);transform: translate(444.64305114746094px, 116.66804885864258px) rotate(0deg) translate(-444.64305114746094px, -116.66804885864258px);}100%{-webkit-transform: translate(444.64305114746094px, 116.66804885864258px) rotate(360deg) translate(-444.64305114746094px, -116.66804885864258px);transform: translate(444.64305114746094px, 116.66804885864258px) rotate(360deg) translate(-444.64305114746094px, -116.66804885864258px);}}@keyframes kf_el_Lz3JrUqMbMP_an_Z9BNQqkd7{0%{-webkit-transform: translate(444.64305114746094px, 116.66804885864258px) rotate(0deg) translate(-444.64305114746094px, -116.66804885864258px);transform: translate(444.64305114746094px, 116.66804885864258px) rotate(0deg) translate(-444.64305114746094px, -116.66804885864258px);}100%{-webkit-transform: translate(444.64305114746094px, 116.66804885864258px) rotate(360deg) translate(-444.64305114746094px, -116.66804885864258px);transform: translate(444.64305114746094px, 116.66804885864258px) rotate(360deg) translate(-444.64305114746094px, -116.66804885864258px);}}@-webkit-keyframes kf_el_d6ExIBfagts_an_4UD5OAgTi{0%{-webkit-transform: translate(322.0487823486328px, 90.50836181640625px) rotate(0deg) translate(-322.0487823486328px, -90.50836181640625px);transform: translate(322.0487823486328px, 90.50836181640625px) rotate(0deg) translate(-322.0487823486328px, -90.50836181640625px);}49.72%{-webkit-transform: translate(322.0487823486328px, 90.50836181640625px) rotate(-30deg) translate(-322.0487823486328px, -90.50836181640625px);transform: translate(322.0487823486328px, 90.50836181640625px) rotate(-30deg) translate(-322.0487823486328px, -90.50836181640625px);}100%{-webkit-transform: translate(322.0487823486328px, 90.50836181640625px) rotate(0deg) translate(-322.0487823486328px, -90.50836181640625px);transform: translate(322.0487823486328px, 90.50836181640625px) rotate(0deg) translate(-322.0487823486328px, -90.50836181640625px);}}@keyframes kf_el_d6ExIBfagts_an_4UD5OAgTi{0%{-webkit-transform: translate(322.0487823486328px, 90.50836181640625px) rotate(0deg) translate(-322.0487823486328px, -90.50836181640625px);transform: translate(322.0487823486328px, 90.50836181640625px) rotate(0deg) translate(-322.0487823486328px, -90.50836181640625px);}49.72%{-webkit-transform: translate(322.0487823486328px, 90.50836181640625px) rotate(-30deg) translate(-322.0487823486328px, -90.50836181640625px);transform: translate(322.0487823486328px, 90.50836181640625px) rotate(-30deg) translate(-322.0487823486328px, -90.50836181640625px);}100%{-webkit-transform: translate(322.0487823486328px, 90.50836181640625px) rotate(0deg) translate(-322.0487823486328px, -90.50836181640625px);transform: translate(322.0487823486328px, 90.50836181640625px) rotate(0deg) translate(-322.0487823486328px, -90.50836181640625px);}}@-webkit-keyframes kf_el_1kMPR7aDgTN_an_hleDcXbHw{0%{opacity: 0.2;}11.39%{opacity: 1;}25.56%{opacity: 0.2;}41.11%{opacity: 1;}57.78%{opacity: 0.2;}71.11%{opacity: 1;}82.22%{opacity: 0.2;}91.39%{opacity: 1;}100%{opacity: 0.2;}}@keyframes kf_el_1kMPR7aDgTN_an_hleDcXbHw{0%{opacity: 0.2;}11.39%{opacity: 1;}25.56%{opacity: 0.2;}41.11%{opacity: 1;}57.78%{opacity: 0.2;}71.11%{opacity: 1;}82.22%{opacity: 0.2;}91.39%{opacity: 1;}100%{opacity: 0.2;}}@-webkit-keyframes kf_el_D1nj5DcIxO_an_1TEL6KdkC{0%{opacity: 1;}11.39%{opacity: 0.2;}26.11%{opacity: 1;}41.67%{opacity: 0.2;}57.50%{opacity: 1;}71.11%{opacity: 0.2;}82.22%{opacity: 1;}91.39%{opacity: 0.2;}100%{opacity: 1;}}@keyframes kf_el_D1nj5DcIxO_an_1TEL6KdkC{0%{opacity: 1;}11.39%{opacity: 0.2;}26.11%{opacity: 1;}41.67%{opacity: 0.2;}57.50%{opacity: 1;}71.11%{opacity: 0.2;}82.22%{opacity: 1;}91.39%{opacity: 0.2;}100%{opacity: 1;}}#el_PsNSUTNmA *{-webkit-animation-duration: 12s;animation-duration: 12s;-webkit-animation-iteration-count: infinite;animation-iteration-count: infinite;-webkit-animation-timing-function: cubic-bezier(0, 0, 1, 1);animation-timing-function: cubic-bezier(0, 0, 1, 1);}#el_jwdAL1bFmW{fill: url(#linear-gradient);}#el_m4izs95IB1{-webkit-clip-path: url(#clip-path);clip-path: url(#clip-path);}#el_RJlNZE0bX0{fill: url(#linear-gradient-3);}#el_fWVvGghTDc{fill: url(#linear-gradient-4);}#el_lX_z0RDwok{fill: #ffd6a1;}#el_iXeeSK09Ic{fill: #ffd6a1;opacity: 0.19;}#el_8LJDBU4tfF{fill: #ffd6a1;}#el_vVPaMH_U4A{fill: #ffd6a1;opacity: 0.19;}#el_W6j9wnp-nPw{fill: #ffd6a1;}#el_eqYF-F7O37K{fill: #ffd6a1;opacity: 0.19;}#el_3ftYfVQvBKI{fill: #ffd6a1;}#el_7MsPVaNaIj2{fill: #ffd6a1;opacity: 0.19;}#el_dHf6TMCNnzk{fill: #ffd6a1;}#el_XxZWqVEnQjM{fill: #ffd6a1;opacity: 0.19;}#el_UeKyITSxj7N{fill: #ffd6a1;}#el_yen_NaFn9iJ{fill: #ffd6a1;opacity: 0.19;}#el_kTj3vk3f0Hs{fill: #ffd6a1;}#el_Hvd2B5oBW-x{fill: #ffd6a1;opacity: 0.19;}#el__T7jy6BREFS{fill: #ffd6a1;}#el_mG4YqRJ__PG{fill: #ffd6a1;opacity: 0.19;}#el_20mKyDAw8yz{fill: #ffd6a1;}#el_cyLB4d_Je8-{fill: #ffd6a1;opacity: 0.19;}#el_vCW6Ugh2zPa{fill: #ffd6a1;}#el_9-iS5gS9vrI{fill: #ffd6a1;opacity: 0.19;}#el_C3SAg7mDMA7{fill: #ffd6a1;}#el_PrfPw53uGOu{fill: #ffd6a1;opacity: 0.19;}#el_nzTbb0uXN80{fill: #ffd6a1;}#el_rUHaGvvSNXH{fill: #ffd6a1;opacity: 0.19;}#el_bgeVDcRRuNp{fill: #ffd6a1;}#el_8MA_TGsSkGB{fill: #ffd6a1;opacity: 0.19;}#el_X5CPMLsAc5k{fill: #ffd6a1;}#el_N6ZCXSgJKDq{fill: #ffd6a1;opacity: 0.19;}#el_tTNDu5lwDan{fill: #ffd6a1;}#el_ItKI4LkgFUH{fill: #ffd6a1;opacity: 0.19;}#el_o4wPfEcrrTe{fill: #ffd6a1;}#el_Op-pxbNrRgj{fill: #ffd6a1;opacity: 0.19;}#el_zLzjyv8t6k_{fill: #ffd6a1;}#el_DhtguaFgriy{fill: #ffd6a1;opacity: 0.19;}#el_zID8FFqQwjB{fill: url(#radial-gradient-2);-webkit-transform: translate(-12.02px, 72.62px) rotate(-12.66deg);transform: translate(-12.02px, 72.62px) rotate(-12.66deg);}#el_Yf3YF5JR3rt{fill: url(#radial-gradient);-webkit-transform: translate(-12.02px, 72.62px) rotate(-12.66deg);transform: translate(-12.02px, 72.62px) rotate(-12.66deg);}#el_e7ur6CklN5Y{-webkit-clip-path: url(#clip-path-2);clip-path: url(#clip-path-2);}#el_I_icUYcJy_z{fill: url(#radial-gradient-4);-webkit-transform: translate(-12.15px, 72.67px) rotate(-12.66deg);transform: translate(-12.15px, 72.67px) rotate(-12.66deg);}#el_RkZ1e3mzBh0{fill: url(#linear-gradient-5);-webkit-transform: translate(-11.17px, 72.77px) rotate(-12.66deg);transform: translate(-11.17px, 72.77px) rotate(-12.66deg);}#el_wDixgoBuiiK{fill: url(#linear-gradient-6);-webkit-transform: translate(-11.9px, 73.02px) rotate(-12.66deg);transform: translate(-11.9px, 73.02px) rotate(-12.66deg);}#el_Yp5Nt5JGnY4{fill: url(#linear-gradient-7);-webkit-transform: translate(-12.56px, 73.25px) rotate(-12.66deg);transform: translate(-12.56px, 73.25px) rotate(-12.66deg);}#el_u5YfxfdhfUy{fill: #f15a24;}#el_7V9h9udYqZ0{fill: url(#radial-gradient-5);-webkit-transform: translate(309.62px, 556.06px) rotate(-87.62deg);transform: translate(309.62px, 556.06px) rotate(-87.62deg);}#el_HKsgIUIZjRx{fill: url(#radial-gradient-6);-webkit-transform: translate(309.62px, 556.06px) rotate(-87.62deg);transform: translate(309.62px, 556.06px) rotate(-87.62deg);}#el_c8V-gfeheJ-{fill: url(#radial-gradient-7);}#el_DQRgUeufljg{fill: url(#linear-gradient-8);}#el_DerZPVeTJgJ{fill: url(#linear-gradient-9);}#el_K_ODMwnoNb5{fill: url(#linear-gradient-10);}#el_xPQbDUrYAKl{-webkit-clip-path: url(#clip-path-3);clip-path: url(#clip-path-3);}#el_jEyN_Bh-n2h{fill: url(#linear-gradient-11);}#el_K34c6n28tCA{fill: url(#linear-gradient-12);}#el_xZF2Po33Ivi{fill: url(#linear-gradient-13);}#el_9EeQyUJvZXt{fill: url(#linear-gradient-14);}#el_rz6OFz-p6JU{fill: url(#linear-gradient-15);}#el_D1nj5DcIxO{-webkit-animation-fill-mode: backwards;animation-fill-mode: backwards;opacity: 1;-webkit-animation-name: kf_el_D1nj5DcIxO_an_1TEL6KdkC;animation-name: kf_el_D1nj5DcIxO_an_1TEL6KdkC;-webkit-animation-timing-function: cubic-bezier(0, 0, 1, 1);animation-timing-function: cubic-bezier(0, 0, 1, 1);}#el_1kMPR7aDgTN{-webkit-animation-fill-mode: backwards;animation-fill-mode: backwards;opacity: 0.2;-webkit-animation-name: kf_el_1kMPR7aDgTN_an_hleDcXbHw;animation-name: kf_el_1kMPR7aDgTN_an_hleDcXbHw;-webkit-animation-timing-function: cubic-bezier(0, 0, 1, 1);animation-timing-function: cubic-bezier(0, 0, 1, 1);}#el_d6ExIBfagts_an_4UD5OAgTi{-webkit-animation-fill-mode: backwards;animation-fill-mode: backwards;-webkit-transform: translate(322.0487823486328px, 90.50836181640625px) rotate(0deg) translate(-322.0487823486328px, -90.50836181640625px);transform: translate(322.0487823486328px, 90.50836181640625px) rotate(0deg) translate(-322.0487823486328px, -90.50836181640625px);-webkit-animation-name: kf_el_d6ExIBfagts_an_4UD5OAgTi;animation-name: kf_el_d6ExIBfagts_an_4UD5OAgTi;-webkit-animation-timing-function: cubic-bezier(0, 0, 1, 1);animation-timing-function: cubic-bezier(0, 0, 1, 1);}#el_Lz3JrUqMbMP_an_Z9BNQqkd7{-webkit-animation-fill-mode: backwards;animation-fill-mode: backwards;-webkit-transform: translate(444.64305114746094px, 116.66804885864258px) rotate(0deg) translate(-444.64305114746094px, -116.66804885864258px);transform: translate(444.64305114746094px, 116.66804885864258px) rotate(0deg) translate(-444.64305114746094px, -116.66804885864258px);-webkit-animation-name: kf_el_Lz3JrUqMbMP_an_Z9BNQqkd7;animation-name: kf_el_Lz3JrUqMbMP_an_Z9BNQqkd7;-webkit-animation-timing-function: cubic-bezier(0, 0, 1, 1);animation-timing-function: cubic-bezier(0, 0, 1, 1);}#el_gWyQ7LQ2fs9_an_ejPH-LF25{-webkit-animation-fill-mode: backwards;animation-fill-mode: backwards;-webkit-transform: translate(330.69000244140625px, 233.38156127929688px) translate(-330.69000244140625px, -233.38156127929688px) translate(0px, 0px);transform: translate(330.69000244140625px, 233.38156127929688px) translate(-330.69000244140625px, -233.38156127929688px) translate(0px, 0px);-webkit-animation-name: kf_el_gWyQ7LQ2fs9_an_ejPH-LF25;animation-name: kf_el_gWyQ7LQ2fs9_an_ejPH-LF25;-webkit-animation-timing-function: cubic-bezier(0.42, 0, 1, 1);animation-timing-function: cubic-bezier(0.42, 0, 1, 1);}</style><defs><linearGradient id="linear-gradient" y1="125.12" x2="591.36" y2="125.12" gradientUnits="userSpaceOnUse"><stop offset="0" stop-color="#3e0e45"/><stop offset="0.21" stop-color="#411044"/><stop offset="0.36" stop-color="#4a1742"/><stop offset="0.49" stop-color="#5a223f"/><stop offset="0.61" stop-color="#70323a"/><stop offset="0.73" stop-color="#8c4634"/><stop offset="0.83" stop-color="#af602d"/><stop offset="0.93" stop-color="#d87d24"/><stop offset="1" stop-color="#f7931e"/></linearGradient><radialGradient id="radial-gradient" cx="405.28" cy="-41.85" r="6.92" gradientTransform="translate(-83.92 132.37)" gradientUnits="userSpaceOnUse"><stop offset="0" stop-color="#ed1c24"/><stop offset="0.14" stop-color="#ee2724"/><stop offset="0.7" stop-color="#f04c24"/><stop offset="1" stop-color="#f15a24"/></radialGradient><clipPath id="clip-path"><path class="cls-1" d="M591.36,240.63C516,219,454.45,214,413.64,213.06c-123-2.68-181.11,29.81-279,13.78A347,347,0,0,1,0,174.56V9.62H591.36Z"/></clipPath><linearGradient id="linear-gradient-3" x1="1677.1" y1="22.21" x2="1913.5" y2="109.81" gradientTransform="matrix(-1, 0, 0, 1, 1920, 0)" xlink:href="#linear-gradient"/><linearGradient id="linear-gradient-4" x1="1749" y1="36.27" x2="1919.91" y2="99.61" gradientTransform="matrix(-1, 0, 0, 1, 1920, 0)" xlink:href="#linear-gradient"/><radialGradient id="radial-gradient-2" cx="405.28" cy="-41.85" r="8.24" gradientTransform="translate(-83.92 132.37)" gradientUnits="userSpaceOnUse"><stop offset="0" stop-color="#f7931e" stop-opacity="0.7"/><stop offset="0.17" stop-color="#f7941f" stop-opacity="0.69"/><stop offset="0.32" stop-color="#f79520" stop-opacity="0.64"/><stop offset="0.47" stop-color="#f89924" stop-opacity="0.57"/><stop offset="0.61" stop-color="#f89d28" stop-opacity="0.46"/><stop offset="0.75" stop-color="#f9a22d" stop-opacity="0.33"/><stop offset="0.89" stop-color="#faa934" stop-opacity="0.16"/><stop offset="1" stop-color="#fbb03b" stop-opacity="0"/></radialGradient><clipPath id="clip-path-2"><circle class="cls-2" cx="321.36" cy="90.52" r="6.92" transform="translate(-12.02 72.62) rotate(-12.66)"/></clipPath><radialGradient id="radial-gradient-4" cx="-626.31" cy="-261.18" r="16.05" gradientTransform="translate(540.51 267.72) scale(0.35 0.68)" xlink:href="#radial-gradient"/><linearGradient id="linear-gradient-5" x1="393.99" y1="-45.31" x2="420.33" y2="-45.31" gradientTransform="translate(-84.73 132.04)" xlink:href="#radial-gradient"/><linearGradient id="linear-gradient-6" x1="393.99" y1="-41.79" x2="420.33" y2="-41.79" gradientTransform="translate(-83.95 131.96)" xlink:href="#radial-gradient"/><linearGradient id="linear-gradient-7" x1="393.99" y1="-38.64" x2="420.33" y2="-38.64" gradientTransform="translate(-83.26 131.88)" xlink:href="#radial-gradient"/><radialGradient id="radial-gradient-5" cx="444.62" cy="116.66" r="57.42" gradientTransform="translate(542.73 -332.42) rotate(87.62)" gradientUnits="userSpaceOnUse"><stop offset="0" stop-color="#e733ff"/><stop offset="1" stop-color="#f7931e" stop-opacity="0"/></radialGradient><radialGradient id="radial-gradient-6" cx="444.62" cy="116.66" r="41.75" gradientTransform="translate(542.73 -332.42) rotate(87.62)" gradientUnits="userSpaceOnUse"><stop offset="0" stop-color="#5e1569"/><stop offset="0.27" stop-color="#61156b"/><stop offset="0.47" stop-color="#6a1672"/><stop offset="0.64" stop-color="#7a187e"/><stop offset="0.8" stop-color="#901a8e"/><stop offset="0.94" stop-color="#ac1da4"/><stop offset="1" stop-color="#ba1eae"/></radialGradient><radialGradient id="radial-gradient-7" cx="447.93" cy="113.2" r="38.43" gradientUnits="userSpaceOnUse"><stop offset="0" stop-color="#f15a24"/><stop offset="0.33" stop-color="#f15d24"/><stop offset="0.56" stop-color="#f26623"/><stop offset="0.76" stop-color="#f47621"/><stop offset="0.95" stop-color="#f68c1f"/><stop offset="1" stop-color="#f7931e"/></radialGradient><linearGradient id="linear-gradient-8" x1="2772.69" y1="-1001.3" x2="2772.59" y2="-992.08" gradientTransform="translate(-2557.56 -397.31) rotate(32.14)" gradientUnits="userSpaceOnUse"><stop offset="0" stop-color="#4c2763"/><stop offset="0.33" stop-color="#492660"/><stop offset="0.56" stop-color="#412357"/><stop offset="0.76" stop-color="#321f47"/><stop offset="0.94" stop-color="#1e1831"/><stop offset="1" stop-color="#161629"/></linearGradient><linearGradient id="linear-gradient-9" x1="-1011.5" y1="-1000.39" x2="-1011.6" y2="-990.9" gradientTransform="matrix(-0.85, -0.53, -0.53, 0.85, -1054.39, 547.07)" xlink:href="#linear-gradient-8"/><linearGradient id="linear-gradient-10" x1="2780.55" y1="-988.02" x2="2780.49" y2="-983" xlink:href="#linear-gradient-8"/><clipPath id="clip-path-3"><path class="cls-3" d="M336.92,233.64a25.22,25.22,0,0,0,.49-15.88l-.73-.54a17.82,17.82,0,0,0-12.05,7.41c-4.83,6.69-4.34,14.62-4,17.55l0,.05,0,0c.06.47.12.81.16,1l3.36,2.46c.14,0,.42-.12.82-.26h0A20,20,0,0,0,336.92,233.64Z"/></clipPath><linearGradient id="linear-gradient-11" x1="2780.66" y1="-1015.03" x2="2780.33" y2="-985.05" gradientTransform="translate(-2557.56 -397.31) rotate(32.14)" gradientUnits="userSpaceOnUse"><stop offset="0" stop-color="#412f69"/><stop offset="0.31" stop-color="#402e66"/><stop offset="0.53" stop-color="#3e2b5d"/><stop offset="0.72" stop-color="#39254d"/><stop offset="0.89" stop-color="#331e37"/><stop offset="1" stop-color="#2e1826"/></linearGradient><linearGradient id="linear-gradient-12" x1="2779.26" y1="-1008.48" x2="2779.15" y2="-998.24" gradientTransform="translate(-2557.56 -397.31) rotate(32.14)" gradientUnits="userSpaceOnUse"><stop offset="0" stop-color="#663485"/><stop offset="0.28" stop-color="#653382"/><stop offset="0.49" stop-color="#603179"/><stop offset="0.66" stop-color="#582d69"/><stop offset="0.82" stop-color="#4d2853"/><stop offset="0.97" stop-color="#3e2037"/><stop offset="1" stop-color="#3b1f31"/></linearGradient><linearGradient id="linear-gradient-13" x1="2778.92" y1="-1009.62" x2="2778.85" y2="-1002.91" gradientTransform="translate(-2557.56 -397.31) rotate(32.14)" gradientUnits="userSpaceOnUse"><stop offset="0" stop-color="#993679"/><stop offset="0.27" stop-color="#963577"/><stop offset="0.47" stop-color="#8d3370"/><stop offset="0.63" stop-color="#7d2f64"/><stop offset="0.79" stop-color="#672a53"/><stop offset="0.93" stop-color="#4b233d"/><stop offset="1" stop-color="#3b1f31"/></linearGradient><linearGradient id="linear-gradient-14" x1="2780.93" y1="-981.33" x2="2780.86" y2="-975.01" gradientTransform="translate(-2557.56 -397.31) rotate(32.14)" gradientUnits="userSpaceOnUse"><stop offset="0" stop-color="#ffa455"/><stop offset="0.25" stop-color="#fda153"/><stop offset="0.42" stop-color="#f4984d"/><stop offset="0.57" stop-color="#e78842"/><stop offset="0.71" stop-color="#d47233"/><stop offset="0.85" stop-color="#bb561f"/><stop offset="0.97" stop-color="#9d3307"/><stop offset="1" stop-color="#942900"/></linearGradient><linearGradient id="linear-gradient-15" x1="2781.04" y1="-980.62" x2="2780.99" y2="-976.1" gradientTransform="translate(-2557.56 -397.31) rotate(32.14)" gradientUnits="userSpaceOnUse"><stop offset="0" stop-color="#ffe67a"/><stop offset="0.25" stop-color="#ffe377"/><stop offset="0.42" stop-color="#ffda6e"/><stop offset="0.57" stop-color="#ffca5f"/><stop offset="0.71" stop-color="#ffb449"/><stop offset="0.84" stop-color="#ff982d"/><stop offset="0.97" stop-color="#ff750b"/><stop offset="1" stop-color="#ff6a00"/></linearGradient></defs><title>01</title><g id="el_8nye_Tetkq" data-name="Layer 2"><g id="el_cAlaF_3paS"><g id="el_3IyS_W5qKY"><path d="M591.36,240.63C516,219,454.45,214,413.64,213.06c-123-2.68-181.11,29.81-279,13.78A347,347,0,0,1,0,174.56V9.62H591.36Z" id="el_jwdAL1bFmW"/><g id="el_m4izs95IB1"><path d="M0,224.44c18.49-45.84,46.37-63.33,69.3-70.6,31.2-9.9,62.13-3.72,71.11-15.72s-22.65-25.49-26.85-44.84C109.41,74.14,186.35,44.78,295.68,0H0Z" id="el_RJlNZE0bX0"/><path d="M0,194.91C15.69,156,39.36,141.15,58.83,135c26.49-8.41,52.74-3.16,60.37-13.34S100,100,96.4,83.56C92.88,67.31,110.47,42.39,203.28,4.38H0Z" id="el_fWVvGghTDc"/><g id="el_D1nj5DcIxO"><g id="el_X8nBU26sbm"><polygon points="207.26 105.1 207.66 105.9 208.54 106.03 207.9 106.65 208.05 107.53 207.26 107.12 206.47 107.53 206.62 106.65 205.99 106.03 206.87 105.9 207.26 105.1" id="el_lX_z0RDwok"/><polygon points="207.26 104.03 207.96 105.45 209.53 105.67 208.4 106.78 208.66 108.34 207.26 107.6 205.86 108.34 206.13 106.78 204.99 105.67 206.56 105.45 207.26 104.03" id="el_iXeeSK09Ic"/></g><g id="el_bu3PFCJgBZ"><polygon points="120.23 107.91 120.63 108.71 121.51 108.84 120.87 109.46 121.02 110.34 120.23 109.92 119.44 110.34 119.59 109.46 118.96 108.84 119.84 108.71 120.23 107.91" id="el_8LJDBU4tfF"/><polygon points="120.23 106.83 120.93 108.25 122.5 108.48 121.36 109.59 121.63 111.15 120.23 110.41 118.83 111.15 119.1 109.59 117.96 108.48 119.53 108.25 120.23 106.83" id="el_vVPaMH_U4A"/></g><g id="el_9sstFnhclF"><polygon points="62.26 93.44 63 94.94 64.65 95.18 63.45 96.35 63.74 98 62.26 97.22 60.77 98 61.06 96.35 59.86 95.18 61.51 94.94 62.26 93.44" id="el_W6j9wnp-nPw"/><polygon points="62.26 91.41 63.57 94.08 66.52 94.51 64.39 96.59 64.89 99.52 62.26 98.13 59.62 99.52 60.12 96.59 57.99 94.51 60.94 94.08 62.26 91.41" id="el_eqYF-F7O37K"/></g><g id="el_0yNIri8ryYR"><polygon points="151.1 190.81 151.56 191.74 152.59 191.88 151.85 192.61 152.02 193.63 151.1 193.15 150.19 193.63 150.36 192.61 149.62 191.88 150.65 191.74 151.1 190.81" id="el_3ftYfVQvBKI"/><polygon points="151.1 189.56 151.92 191.21 153.74 191.47 152.42 192.75 152.73 194.57 151.1 193.71 149.48 194.57 149.79 192.75 148.47 191.47 150.29 191.21 151.1 189.56" id="el_7MsPVaNaIj2"/></g><g id="el_kseiPRMNHFm"><polygon points="441.71 187.47 442.08 188.22 442.9 188.34 442.31 188.93 442.45 189.75 441.71 189.36 440.96 189.75 441.11 188.93 440.51 188.34 441.34 188.22 441.71 187.47" id="el_dHf6TMCNnzk"/><polygon points="441.71 186.46 442.37 187.79 443.84 188.01 442.77 189.05 443.02 190.51 441.71 189.82 440.39 190.51 440.64 189.05 439.57 188.01 441.05 187.79 441.71 186.46" id="el_XxZWqVEnQjM"/></g><g id="el_mQ8GcFF5ei7"><polygon points="343.77 31.75 344.35 32.92 345.64 33.11 344.7 34.02 344.93 35.3 343.77 34.7 342.62 35.3 342.84 34.02 341.9 33.11 343.19 32.92 343.77 31.75" id="el_UeKyITSxj7N"/><polygon points="343.77 30.18 344.8 32.25 347.09 32.59 345.43 34.2 345.82 36.49 343.77 35.41 341.72 36.49 342.11 34.2 340.45 32.59 342.75 32.25 343.77 30.18" id="el_yen_NaFn9iJ"/></g><g id="el_OfQ16ipKa-l"><polygon points="266.22 61.98 266.79 63.14 268.07 63.32 267.15 64.22 267.37 65.5 266.22 64.9 265.07 65.5 265.29 64.22 264.37 63.32 265.65 63.14 266.22 61.98" id="el_kTj3vk3f0Hs"/><polygon points="266.22 60.41 267.24 62.47 269.51 62.8 267.87 64.41 268.26 66.68 266.22 65.61 264.18 66.68 264.57 64.41 262.92 62.8 265.2 62.47 266.22 60.41" id="el_Hvd2B5oBW-x"/></g><g id="el_eOyBjii0xrz"><polygon points="147.01 22.89 147.59 24.05 148.87 24.23 147.94 25.14 148.16 26.41 147.01 25.81 145.87 26.41 146.09 25.14 145.16 24.23 146.44 24.05 147.01 22.89" id="el__T7jy6BREFS"/><polygon points="147.01 21.32 148.03 23.39 150.31 23.72 148.66 25.32 149.05 27.59 147.01 26.52 144.98 27.59 145.37 25.32 143.72 23.72 146 23.39 147.01 21.32" id="el_mG4YqRJ__PG"/></g><g id="el_gK69U3pdEYw"><polygon points="464.25 34.98 464.82 36.14 466.1 36.33 465.18 37.23 465.39 38.51 464.25 37.91 463.1 38.51 463.32 37.23 462.39 36.33 463.68 36.14 464.25 34.98" id="el_20mKyDAw8yz"/><polygon points="464.25 33.41 465.27 35.48 467.54 35.81 465.9 37.41 466.29 39.68 464.25 38.61 462.21 39.68 462.6 37.41 460.95 35.81 463.23 35.48 464.25 33.41" id="el_cyLB4d_Je8-"/></g></g><g id="el_1kMPR7aDgTN" data-name="Stars"><g id="el_o8tj2b_4Z0i" data-name="Star09"><polygon points="109.1 85.17 109.73 84.53 110.61 84.69 110.2 83.9 110.62 83.11 109.74 83.26 109.12 82.61 108.99 83.5 108.19 83.88 108.98 84.28 109.1 85.17" id="el_vCW6Ugh2zPa"/><polygon points="108.76 86.19 109.88 85.06 111.44 85.34 110.71 83.94 111.45 82.54 109.89 82.8 108.8 81.65 108.56 83.22 107.13 83.91 108.55 84.62 108.76 86.19" id="el_9-iS5gS9vrI"/></g><g id="el_IdbSSkvlTpg" data-name="Star08"><polygon points="27.42 55 28.05 54.37 28.92 54.53 28.51 53.73 28.93 52.95 28.06 53.09 27.44 52.45 27.3 53.33 26.5 53.72 27.3 54.12 27.42 55" id="el_C3SAg7mDMA7"/><polygon points="27.08 56.02 28.19 54.9 29.75 55.18 29.02 53.77 29.77 52.38 28.21 52.63 27.11 51.49 26.87 53.06 25.45 53.75 26.86 54.46 27.08 56.02" id="el_PrfPw53uGOu"/></g><g id="el_rT0bEyOMMJc" data-name="Star07"><polygon points="144.72 68.1 145.9 66.91 147.54 67.2 146.78 65.71 147.57 64.24 145.91 64.51 144.75 63.3 144.5 64.96 143 65.69 144.49 66.44 144.72 68.1" id="el_nzTbb0uXN80"/><polygon points="144.08 70.02 146.17 67.9 149.1 68.43 147.74 65.78 149.14 63.16 146.2 63.64 144.14 61.49 143.69 64.44 141.01 65.73 143.67 67.07 144.08 70.02" id="el_rUHaGvvSNXH"/></g><g id="el_ZAO0oFoUeND" data-name="Star05"><polygon points="357.56 81.1 358.15 80.5 358.98 80.65 358.59 79.91 358.99 79.17 358.16 79.3 357.58 78.7 357.45 79.53 356.7 79.89 357.45 80.27 357.56 81.1" id="el_bgeVDcRRuNp"/><polygon points="357.24 82.06 358.29 81 359.75 81.26 359.07 79.94 359.77 78.63 358.31 78.87 357.27 77.8 357.05 79.27 355.71 79.92 357.04 80.58 357.24 82.06" id="el_8MA_TGsSkGB"/></g><g id="el_hBtCAhKARGg" data-name="Star04"><polygon points="215.44 197.89 216.36 196.97 217.64 197.2 217.04 196.04 217.66 194.89 216.37 195.1 215.47 194.16 215.27 195.45 214.1 196.02 215.26 196.6 215.44 197.89" id="el_X5CPMLsAc5k"/><polygon points="214.94 199.39 216.57 197.74 218.86 198.15 217.79 196.09 218.89 194.05 216.6 194.42 214.99 192.75 214.64 195.04 212.56 196.05 214.63 197.09 214.94 199.39" id="el_N6ZCXSgJKDq"/></g><g id="el_6WZGPwPD-vx" data-name="Star03"><polygon points="151.41 144.72 152.32 143.79 153.6 144.02 153 142.87 153.62 141.73 152.34 141.94 151.44 141.01 151.25 142.29 150.08 142.85 151.24 143.43 151.41 144.72" id="el_tTNDu5lwDan"/><polygon points="150.92 146.2 152.54 144.56 154.8 144.97 153.75 142.93 154.83 140.9 152.56 141.27 150.97 139.61 150.62 141.88 148.55 142.89 150.6 143.92 150.92 146.2" id="el_ItKI4LkgFUH"/></g><g id="el_9BN7oo7Op71" data-name="Star02"><polygon points="25.96 144.13 26.87 143.21 28.15 143.44 27.55 142.29 28.16 141.15 26.89 141.36 25.99 140.43 25.8 141.71 24.63 142.27 25.79 142.85 25.96 144.13" id="el_o4wPfEcrrTe"/><polygon points="25.47 145.62 27.09 143.98 29.35 144.39 28.3 142.34 29.38 140.32 27.11 140.69 25.52 139.03 25.17 141.3 23.1 142.31 25.16 143.34 25.47 145.62" id="el_Op-pxbNrRgj"/></g><g id="el_48MM51So1Gz" data-name="Star01"><polygon points="398.53 174.38 399.44 173.46 400.71 173.69 400.12 172.54 400.73 171.4 399.45 171.6 398.56 170.67 398.36 171.95 397.19 172.51 398.35 173.1 398.53 174.38" id="el_zLzjyv8t6k_"/><polygon points="398.03 175.87 399.65 174.23 401.92 174.63 400.86 172.59 401.95 170.56 399.68 170.93 398.08 169.27 397.73 171.55 395.66 172.55 397.72 173.59 398.03 175.87" id="el_DhtguaFgriy"/></g></g><g id="el_d6ExIBfagts_an_4UD5OAgTi" data-animator-group="true" data-animator-type="1"><g id="el_d6ExIBfagts"><circle cx="321.36" cy="90.52" r="8.24" id="el_zID8FFqQwjB"/><circle cx="321.36" cy="90.52" r="6.92" id="el_Yf3YF5JR3rt"/><g id="el_e7ur6CklN5Y"><rect x="314.57" y="83.58" width="13.84" height="15.05" id="el_I_icUYcJy_z"/><rect x="309.26" y="85.82" width="26.34" height="1.82" id="el_RkZ1e3mzBh0"/><rect x="310.03" y="89.25" width="26.34" height="1.82" id="el_wDixgoBuiiK"/><rect x="310.73" y="92.33" width="26.34" height="1.82" id="el_Yp5Nt5JGnY4"/></g><path d="M326.58,86a6.88,6.88,0,0,1,.86,1.25c1-.1,1.94-.17,2.8-.19,2.94-.07,3.87.41,4,.6s-.64,1-3.33,2.24A56.39,56.39,0,0,1,312.48,94c-2.94.07-3.87-.41-4-.6s.64-1,3.33-2.24c.78-.35,1.66-.69,2.61-1a6.88,6.88,0,0,1,.25-1.5c-4.12,1.37-7.91,3.2-7.49,5.05.62,2.76,9.68,1.5,14.94.32s14-3.92,13.37-6.67C335.1,85.49,330.89,85.45,326.58,86Z" id="el_u5YfxfdhfUy"/></g></g><g id="el_Lz3JrUqMbMP_an_Z9BNQqkd7" data-animator-group="true" data-animator-type="1"><g id="el_Lz3JrUqMbMP"><circle cx="444.62" cy="116.66" r="57.42" id="el_7V9h9udYqZ0"/><circle cx="444.62" cy="116.66" r="41.74" id="el_HKsgIUIZjRx"/><path d="M454.77,123.43c0,3.39,4.45,3.6,5.51,3.81s3.81,0,6.57,1.27-1.48,6.15-1.48,6.15l-1.91,4.66,5.09,2.12c5.09,2.12,8.69-3.6,6.78-5.09s3.81-7,6.36-8.26-.64-4.24-.64-4.24,2.33-4.24,5.32-2.12a42.65,42.65,0,0,1-19.1,29.88l-7.84-2.54c-7.84-2.54-4.24-9.32-4.24-9.32s.42,0,3-2.33,1.06-8.48-1.48-8.69-4.45,2.75-5.93-4.45C450.74,124.27,454.77,120,454.77,123.43Zm-21.9-46.84s6,3.61,3.25,6.15-.85,7.2.64,7.2,8.48.21,5.72,3,3.39,0,3.39,0-1.91-4.24-4.45-4.24-.85-3.81.85-4l1.7-.21s9.75-.85,8.69,6.36S440.36,101,444.6,105s10.81,2.33,10.81,2.33,3.18-1.91,1.27-4.87-1.06-4-1.06-4,2.33-2.12,4.66-2.12-1.48-3.81-1.48-4.24.85-1.7,5.09-2.75,7.63-.21,8.48,2.75,3.81,1.7,3.81,1.7,1.27-2.75-2.12-4.66-2-3.92-2-3.92S456.11,69.59,432.87,76.59ZM415.78,116l1.06.64c1.06.64,1.7,11.44-5.93,16.53s18.22,8.9,15.26,5.93,8.69-8.05,14.2-10.17,2.33-14-1.48-14.2-7.41,1.92-10.6-4.45C422.77,99.27,415.78,116,415.78,116Z" id="el_c8V-gfeheJ-"/></g></g><g id="el_gWyQ7LQ2fs9_an_ejPH-LF25" data-animator-group="true" data-animator-type="0"><g id="el_gWyQ7LQ2fs9"><path d="M324.27,228.92a4.89,4.89,0,0,0-4.14.67c-2.92,2.12-2.7,7.13-2.33,7.27s.89-3.17,2.62-3.5c1.23-.23,2,1.26,2.8.92C323.82,234,324.37,232.85,324.27,228.92Z" id="el_DQRgUeufljg"/><path d="M334,236.06a7.21,7.21,0,0,1,1.28,4.65c-.37,4-4.33,5.93-4.6,5.6s2.06-2.31,1.57-4.27c-.36-1.4-1.83-1.54-1.92-2.55C330.26,238.75,330.93,237.66,334,236.06Z" id="el_DerZPVeTJgJ"/><polygon points="322.88 251.14 317.23 246.99 320.84 243.23 324.17 245.67 322.88 251.14" id="el_K_ODMwnoNb5"/><g id="el_xPQbDUrYAKl"><polygon points="334.06 254.06 312.35 238.14 327.31 210.35 349.03 226.27 334.06 254.06" id="el_jEyN_Bh-n2h"/><polygon points="324.27 220.09 340.82 232.22 336.03 241.11 319.48 228.98 324.27 220.09" id="el_K34c6n28tCA"/></g><path d="M332.6,229.33c-1,1.81-2.39,2.81-3.16,2.24s-.61-2.49.36-4.3,2.39-2.81,3.16-2.24S333.57,227.53,332.6,229.33Z" id="el_xZF2Po33Ivi"/><g id="el_ZUK0cv53XwI"><path d="M320.3,252.66a4.27,4.27,0,0,0-.37-2.26c-.52.64-1,1.21-1.36,1.72.22-.63.47-1.35.74-2.17a2.86,2.86,0,0,0-1.91.6c-1.61,1.29-1.62,4.27-1.24,5.41a.35.35,0,0,0,0,.26.26.26,0,0,0,.13.09.27.27,0,0,0,.12.1.24.24,0,0,0,.22-.08A4.64,4.64,0,0,0,320.3,252.66Z" id="el_9EeQyUJvZXt"/><path d="M319.72,252.89a3.05,3.05,0,0,0-.26-1.62c-.37.46-.69.86-1,1.23.16-.45.34-1,.53-1.55a2,2,0,0,0-1.37.43c-1.15.92-1.16,3.06-.89,3.87a.25.25,0,0,0,0,.19.19.19,0,0,0,.09.06.19.19,0,0,0,.09.07.17.17,0,0,0,.16-.05A3.32,3.32,0,0,0,319.72,252.89Z" id="el_rz6OFz-p6JU"/></g></g></g></g></g></g></g></svg>