<svg xmlns="http://www.w3.org/2000/svg" xmlns:xlink="http://www.w3.org/1999/xlink" viewBox="0 0 559 227" id="el_mFlqh-kyn"><style>@-webkit-keyframes kf_el_ld6cxr81qsv_an_Yde8GOmLF{36.94%{-webkit-transform: translate(425.7799987792969px, 19.99851267039776px) translate(-425.7799987792969px, -19.99851267039776px) translate(0px, 0px);transform: translate(425.7799987792969px, 19.99851267039776px) translate(-425.7799987792969px, -19.99851267039776px) translate(0px, 0px);}55.83%{-webkit-transform: translate(425.7799987792969px, 19.99851267039776px) translate(-425.7799987792969px, -19.99851267039776px) translate(-90px, 250px);transform: translate(425.7799987792969px, 19.99851267039776px) translate(-425.7799987792969px, -19.99851267039776px) translate(-90px, 250px);}0%{-webkit-transform: translate(425.7799987792969px, 19.99851267039776px) translate(-425.7799987792969px, -19.99851267039776px) translate(0px, 0px);transform: translate(425.7799987792969px, 19.99851267039776px) translate(-425.7799987792969px, -19.99851267039776px) translate(0px, 0px);}100%{-webkit-transform: translate(425.7799987792969px, 19.99851267039776px) translate(-425.7799987792969px, -19.99851267039776px) translate(-90px, 250px);transform: translate(425.7799987792969px, 19.99851267039776px) translate(-425.7799987792969px, -19.99851267039776px) translate(-90px, 250px);}}@keyframes kf_el_ld6cxr81qsv_an_Yde8GOmLF{36.94%{-webkit-transform: translate(425.7799987792969px, 19.99851267039776px) translate(-425.7799987792969px, -19.99851267039776px) translate(0px, 0px);transform: translate(425.7799987792969px, 19.99851267039776px) translate(-425.7799987792969px, -19.99851267039776px) translate(0px, 0px);}55.83%{-webkit-transform: translate(425.7799987792969px, 19.99851267039776px) translate(-425.7799987792969px, -19.99851267039776px) translate(-90px, 250px);transform: translate(425.7799987792969px, 19.99851267039776px) translate(-425.7799987792969px, -19.99851267039776px) translate(-90px, 250px);}0%{-webkit-transform: translate(425.7799987792969px, 19.99851267039776px) translate(-425.7799987792969px, -19.99851267039776px) translate(0px, 0px);transform: translate(425.7799987792969px, 19.99851267039776px) translate(-425.7799987792969px, -19.99851267039776px) translate(0px, 0px);}100%{-webkit-transform: translate(425.7799987792969px, 19.99851267039776px) translate(-425.7799987792969px, -19.99851267039776px) translate(-90px, 250px);transform: translate(425.7799987792969px, 19.99851267039776px) translate(-425.7799987792969px, -19.99851267039776px) translate(-90px, 250px);}}@-webkit-keyframes kf_el_B52jPqoJrh_an_GfQxWZdgN{0%{opacity: 0.2;}11.11%{opacity: 1;}22.50%{opacity: 0.2;}32.50%{opacity: 1;}42.78%{opacity: 0.2;}54.72%{opacity: 1;}66.39%{opacity: 0.2;}78.33%{opacity: 1;}89.44%{opacity: 0.2;}100%{opacity: 0.2;}}@keyframes kf_el_B52jPqoJrh_an_GfQxWZdgN{0%{opacity: 0.2;}11.11%{opacity: 1;}22.50%{opacity: 0.2;}32.50%{opacity: 1;}42.78%{opacity: 0.2;}54.72%{opacity: 1;}66.39%{opacity: 0.2;}78.33%{opacity: 1;}89.44%{opacity: 0.2;}100%{opacity: 0.2;}}#el_mFlqh-kyn *{-webkit-animation-duration: 12s;animation-duration: 12s;-webkit-animation-iteration-count: infinite;animation-iteration-count: infinite;-webkit-animation-timing-function: cubic-bezier(0, 0, 1, 1);animation-timing-function: cubic-bezier(0, 0, 1, 1);}#el_cnONL5jt9I{fill: url(#linear-gradient);}#el_rtfVLTYLnh{-webkit-clip-path: url(#clip-path);clip-path: url(#clip-path);}#el_zRbh6W8v8R{fill: url(#linear-gradient-3);}#el_sFft28dX7n{fill: url(#linear-gradient-4);}#el_Kq3-hzMV3m{fill: url(#linear-gradient-5);}#el_VJPFrV_A5P{fill: #ffd6a1;}#el_AkCVyWjSsT{fill: #ffd6a1;opacity: 0.19;}#el_pEHsOZuC5c{fill: #ffd6a1;}#el_U5p7wQaLwe{fill: #ffd6a1;opacity: 0.19;}#el_YI_iCIlgLOk{fill: #ffd6a1;}#el_RmNPwtUuUr1{fill: #ffd6a1;opacity: 0.19;}#el_y5YiEhhvOcz{fill: #ffd6a1;}#el_FwhkzJmAxyC{fill: #ffd6a1;opacity: 0.19;}#el_c5Yf8T8-RlM{fill: #ffd6a1;}#el_M8CK0gmRWp_{fill: #ffd6a1;opacity: 0.19;}#el_aIF1dZfA2Gi{fill: #ffd6a1;}#el_dll4pBqikKG{fill: #ffd6a1;opacity: 0.19;}#el_zUHMYc9UQjX{fill: #ffd6a1;}#el_O-PaXaranS9{fill: #ffd6a1;opacity: 0.19;}#el_pSMqHe3HHvP{fill: #ffd6a1;}#el_QnmVUrM8048{fill: #ffd6a1;opacity: 0.19;}#el_aNjhOifpfkz{fill: #ffd6a1;}#el_Oi1T2tQm4Qt{fill: #ffd6a1;opacity: 0.19;}#el_4xfvfJy9s7O{fill: url(#linear-gradient-6);}#el_TSuhM4khcBz{fill: url(#linear-gradient-7);}#el_jDF7bvwy6mB{fill: url(#linear-gradient-8);}#el_bI6fKwewarq{-webkit-clip-path: url(#clip-path-2);clip-path: url(#clip-path-2);}#el_LTpWtQ3eLkQ{fill: url(#linear-gradient-9);}#el_txJXp5IosEA{fill: url(#linear-gradient-10);}#el_FGy6RrmAOmU{fill: url(#linear-gradient-11);}#el_0aRxRYhcb_k{fill: url(#linear-gradient-12);}#el_I_l91qir_RO{fill: url(#linear-gradient-13);}#el_B52jPqoJrh{-webkit-animation-fill-mode: backwards;animation-fill-mode: backwards;opacity: 0.2;-webkit-animation-name: kf_el_B52jPqoJrh_an_GfQxWZdgN;animation-name: kf_el_B52jPqoJrh_an_GfQxWZdgN;-webkit-animation-timing-function: cubic-bezier(0, 0, 1, 1);animation-timing-function: cubic-bezier(0, 0, 1, 1);}#el_ld6cxr81qsv_an_Yde8GOmLF{-webkit-animation-fill-mode: backwards;animation-fill-mode: backwards;-webkit-transform: translate(425.7799987792969px, 19.99851267039776px) translate(-425.7799987792969px, -19.99851267039776px) translate(0px, 0px);transform: translate(425.7799987792969px, 19.99851267039776px) translate(-425.7799987792969px, -19.99851267039776px) translate(0px, 0px);-webkit-animation-name: kf_el_ld6cxr81qsv_an_Yde8GOmLF;animation-name: kf_el_ld6cxr81qsv_an_Yde8GOmLF;-webkit-animation-timing-function: cubic-bezier(0.42, 0, 1, 1);animation-timing-function: cubic-bezier(0.42, 0, 1, 1);}</style><defs><linearGradient id="linear-gradient" x1="-1360.47" y1="-784.44" x2="-802.11" y2="-784.44" gradientTransform="translate(-800.95 -653.89) rotate(180)" gradientUnits="userSpaceOnUse"><stop offset="0" stop-color="#3e0e45"/><stop offset="0.21" stop-color="#411044"/><stop offset="0.36" stop-color="#4a1742"/><stop offset="0.49" stop-color="#5a223f"/><stop offset="0.61" stop-color="#70323a"/><stop offset="0.73" stop-color="#8c4634"/><stop offset="0.83" stop-color="#af602d"/><stop offset="0.93" stop-color="#d87d24"/><stop offset="1" stop-color="#f7931e"/></linearGradient><clipPath id="clip-path"><path class="cls-1" d="M1.16,34.06c71.12,18.06,129.27,22.29,167.8,23C285.1,59.32,340,32.18,432.44,45.57c60,8.69,102.85,29.66,127.09,43.68v137.8H1.16Z"/></clipPath><linearGradient id="linear-gradient-3" x1="472.43" y1="297" x2="-1.52" y2="97.36" gradientTransform="matrix(1, 0, 0, 1, 0, 0)" xlink:href="#linear-gradient"/><linearGradient id="linear-gradient-4" x1="-4422.94" y1="-938.22" x2="-4033.52" y2="-793.91" gradientTransform="translate(-3990.95 -653.89) rotate(180)" xlink:href="#linear-gradient"/><linearGradient id="linear-gradient-5" x1="-4151.28" y1="-856.34" x2="-3993.48" y2="-797.86" gradientTransform="translate(-3990.95 -653.89) rotate(180)" xlink:href="#linear-gradient"/><linearGradient id="linear-gradient-6" x1="-742.35" y1="-1434.52" x2="-742.44" y2="-1426.28" gradientTransform="translate(567.77 -1586.49) rotate(-147.86)" gradientUnits="userSpaceOnUse"><stop offset="0" stop-color="#4c2763"/><stop offset="0.33" stop-color="#492660"/><stop offset="0.56" stop-color="#412357"/><stop offset="0.76" stop-color="#321f47"/><stop offset="0.94" stop-color="#1e1831"/><stop offset="1" stop-color="#161629"/></linearGradient><linearGradient id="linear-gradient-7" x1="-4366.29" y1="-1434.15" x2="-4366.38" y2="-1425.79" gradientTransform="matrix(0.85, 0.53, 0.53, -0.85, 4882.62, 1124.34)" xlink:href="#linear-gradient-6"/><linearGradient id="linear-gradient-8" x1="-735.6" y1="-1422.91" x2="-735.64" y2="-1418.63" xlink:href="#linear-gradient-6"/><clipPath id="clip-path-2"><path class="cls-2" d="M419.89,19.76a20.24,20.24,0,0,0-.46,13.79l.69.47a17.22,17.22,0,0,0,11.38-6.44c4.56-5.81,4.1-12.69,3.73-15.24l0,0,0,0c-.06-.41-.12-.7-.15-.84L431.9,9.3c-.13,0-.4.1-.77.22h0A18.32,18.32,0,0,0,419.89,19.76Z"/></clipPath><linearGradient id="linear-gradient-9" x1="-734.82" y1="-1446.65" x2="-735.11" y2="-1420.87" gradientTransform="translate(567.77 -1586.49) rotate(-147.86)" gradientUnits="userSpaceOnUse"><stop offset="0" stop-color="#412f69"/><stop offset="0.31" stop-color="#402e66"/><stop offset="0.53" stop-color="#3e2b5d"/><stop offset="0.72" stop-color="#39254d"/><stop offset="0.89" stop-color="#331e37"/><stop offset="1" stop-color="#2e1826"/></linearGradient><linearGradient id="linear-gradient-10" x1="-736.07" y1="-1440.87" x2="-736.16" y2="-1432.42" gradientTransform="translate(567.77 -1586.49) rotate(-147.86)" gradientUnits="userSpaceOnUse"><stop offset="0" stop-color="#663485"/><stop offset="0.28" stop-color="#653382"/><stop offset="0.49" stop-color="#603179"/><stop offset="0.66" stop-color="#582d69"/><stop offset="0.82" stop-color="#4d2853"/><stop offset="0.97" stop-color="#3e2037"/><stop offset="1" stop-color="#3b1f31"/></linearGradient><linearGradient id="linear-gradient-11" x1="-736.3" y1="-1442.12" x2="-736.36" y2="-1436.17" gradientTransform="translate(567.77 -1586.49) rotate(-147.86)" gradientUnits="userSpaceOnUse"><stop offset="0" stop-color="#993679"/><stop offset="0.27" stop-color="#963577"/><stop offset="0.47" stop-color="#8d3370"/><stop offset="0.63" stop-color="#7d2f64"/><stop offset="0.79" stop-color="#672a53"/><stop offset="0.93" stop-color="#4b233d"/><stop offset="1" stop-color="#3b1f31"/></linearGradient><linearGradient id="linear-gradient-12" x1="-735.38" y1="-1417.01" x2="-735.45" y2="-1411.41" gradientTransform="translate(567.77 -1586.49) rotate(-147.86)" gradientUnits="userSpaceOnUse"><stop offset="0" stop-color="#ffa455"/><stop offset="0.25" stop-color="#fda153"/><stop offset="0.42" stop-color="#f4984d"/><stop offset="0.57" stop-color="#e78842"/><stop offset="0.71" stop-color="#d47233"/><stop offset="0.85" stop-color="#bb561f"/><stop offset="0.97" stop-color="#9d3307"/><stop offset="1" stop-color="#942900"/></linearGradient><linearGradient id="linear-gradient-13" x1="-735.28" y1="-1416.39" x2="-735.33" y2="-1412.38" gradientTransform="translate(567.77 -1586.49) rotate(-147.86)" gradientUnits="userSpaceOnUse"><stop offset="0" stop-color="#ffe67a"/><stop offset="0.25" stop-color="#ffe377"/><stop offset="0.42" stop-color="#ffda6e"/><stop offset="0.57" stop-color="#ffca5f"/><stop offset="0.71" stop-color="#ffb449"/><stop offset="0.84" stop-color="#ff982d"/><stop offset="0.97" stop-color="#ff750b"/><stop offset="1" stop-color="#ff6a00"/></linearGradient></defs><title>02</title><g id="el_QLB4TZHBAy" data-name="Layer 2"><g id="el_eRdN2FwHMT"><g id="el_HScSdbSK5h"><path d="M1.16,34.06c71.12,18.06,129.27,22.29,167.8,23C285.1,59.32,340,32.18,432.44,45.57c60,8.69,102.85,29.66,127.09,43.68v137.8H1.16Z" id="el_cnONL5jt9I"/><g id="el_rtfVLTYLnh"><path d="M1.16,34.06c17.46,39.42,99,47.14,120.68,53.4C151.31,96,180.51,90.66,189,101s-21.39,21.92-25.35,38.56C159.72,156,456.3,166.62,559.53,205.13v21.93H1.16Z" id="el_zRbh6W8v8R"/><path d="M1.16,34.06C18.62,73.47,44.94,88.51,66.59,94.77c29.46,8.52,58.66,3.2,67.14,13.52s-21.39,21.92-25.35,38.56c-3.92,16.46,342.1,41.71,445.32,80.21H1.16Z" id="el_sFft28dX7n"/><path d="M1.16,59.45C16,92.91,38.33,105.68,56.71,111c25,7.23,49.8,2.72,57,11.47S95.55,141.07,92.19,155.2c-3.33,14,13.28,35.41,99.75,71.86H0Z" id="el_Kq3-hzMV3m"/><g id="el_B52jPqoJrh"><g id="el_eN31N0tp2P"><polygon points="160.24 150.36 160.69 151.2 161.71 151.34 160.97 152 161.15 152.92 160.24 152.49 159.34 152.92 159.51 152 158.78 151.34 159.79 151.2 160.24 150.36" id="el_VJPFrV_A5P"/><polygon points="160.24 149.22 161.05 150.72 162.85 150.96 161.54 152.13 161.85 153.78 160.24 153 158.63 153.78 158.94 152.13 157.63 150.96 159.44 150.72 160.24 149.22" id="el_AkCVyWjSsT"/></g><g id="el_J9IroavNUI"><polygon points="60.19 153.33 60.64 154.17 61.65 154.31 60.92 154.96 61.09 155.89 60.19 155.45 59.28 155.89 59.45 154.96 58.72 154.31 59.73 154.17 60.19 153.33" id="el_pEHsOZuC5c"/><polygon points="60.19 152.19 60.99 153.69 62.8 153.93 61.49 155.1 61.8 156.75 60.19 155.97 58.58 156.75 58.88 155.1 57.58 153.93 59.38 153.69 60.19 152.19" id="el_U5p7wQaLwe"/></g><g id="el_riNO3HQAGnR"><polygon points="386.24 187.56 386.65 188.36 387.6 188.5 386.89 189.11 387.04 189.98 386.2 189.56 385.34 189.96 385.52 189.09 384.84 188.46 385.79 188.34 386.24 187.56" id="el_YI_iCIlgLOk"/><polygon points="386.26 186.49 386.99 187.91 388.68 188.16 387.43 189.24 387.69 190.8 386.19 190.04 384.66 190.75 384.98 189.2 383.77 188.09 385.47 187.89 386.26 186.49" id="el_RmNPwtUuUr1"/></g><g id="el_qkus9jUJHfF"><polygon points="317.18 72.81 317.85 74.04 319.33 74.24 318.26 75.2 318.51 76.56 317.18 75.92 315.86 76.56 316.11 75.2 315.04 74.24 316.52 74.04 317.18 72.81" id="el_y5YiEhhvOcz"/><polygon points="317.18 71.14 318.36 73.34 321 73.69 319.09 75.4 319.54 77.82 317.18 76.67 314.82 77.82 315.27 75.4 313.37 73.69 316 73.34 317.18 71.14" id="el_FwhkzJmAxyC"/></g><g id="el_uwUQykx4xJC"><polygon points="223.5 164.65 224.33 166.2 226.18 166.45 224.84 167.65 225.16 169.35 223.5 168.55 221.84 169.35 222.16 167.65 220.81 166.45 222.67 166.2 223.5 164.65" id="el_c5Yf8T8-RlM"/><polygon points="223.5 162.56 224.97 165.31 228.27 165.75 225.88 167.9 226.45 170.92 223.5 169.49 220.55 170.92 221.11 167.9 218.72 165.75 222.02 165.31 223.5 162.56" id="el_M8CK0gmRWp_"/></g><g id="el_ttxQ6sYdEtB"><polygon points="98.43 210.36 98.94 211.32 100.09 211.47 99.26 212.22 99.46 213.27 98.43 212.77 97.41 213.27 97.6 212.22 96.77 211.47 97.92 211.32 98.43 210.36" id="el_aIF1dZfA2Gi"/><polygon points="98.43 209.07 99.34 210.77 101.38 211.04 99.91 212.37 100.25 214.24 98.43 213.35 96.61 214.24 96.96 212.37 95.48 211.04 97.52 210.77 98.43 209.07" id="el_dll4pBqikKG"/></g><g id="el_cjj7wkfKr8C"><polygon points="227.3 77.51 227.94 78.71 229.38 78.9 228.34 79.83 228.58 81.15 227.3 80.53 226.02 81.15 226.26 79.83 225.23 78.9 226.66 78.71 227.3 77.51" id="el_zUHMYc9UQjX"/><polygon points="227.3 75.89 228.44 78.02 230.99 78.36 229.15 80.02 229.58 82.36 227.3 81.25 225.02 82.36 225.46 80.02 223.61 78.36 226.16 78.02 227.3 75.89" id="el_O-PaXaranS9"/></g><g id="el_8qb6mjQBzht"><polygon points="90.98 63.44 91.64 64.66 93.11 64.86 92.04 65.81 92.3 67.16 90.98 66.53 89.66 67.16 89.91 65.81 88.85 64.86 90.32 64.66 90.98 63.44" id="el_pSMqHe3HHvP"/><polygon points="90.98 61.78 92.15 63.96 94.77 64.31 92.87 66.01 93.32 68.41 90.98 67.27 88.64 68.41 89.08 66.01 87.19 64.31 89.81 63.96 90.98 61.78" id="el_QnmVUrM8048"/></g><g id="el_Hsi5U9wJKDu"><polygon points="455.69 76.22 456.35 77.45 457.82 77.64 456.76 78.6 457.01 79.95 455.69 79.31 454.37 79.95 454.63 78.6 453.56 77.64 455.03 77.45 455.69 76.22" id="el_aNjhOifpfkz"/><polygon points="455.69 74.56 456.86 76.75 459.48 77.1 457.58 78.79 458.03 81.19 455.69 80.06 453.35 81.19 453.8 78.79 451.9 77.1 454.52 76.75 455.69 74.56" id="el_Oi1T2tQm4Qt"/></g></g><g id="el_ld6cxr81qsv_an_Yde8GOmLF" data-animator-group="true" data-animator-type="0"><g id="el_ld6cxr81qsv"><path d="M431.84,23.85a5,5,0,0,0,3.91-.58c2.76-1.84,2.55-6.19,2.2-6.31s-.84,2.75-2.47,3c-1.17.2-1.87-1.09-2.65-.8C432.26,19.42,431.74,20.45,431.84,23.85Z" id="el_4xfvfJy9s7O"/><path d="M422.64,17.66a5.92,5.92,0,0,1-1.21-4c.34-3.47,4.09-5.15,4.35-4.86s-1.95,2-1.48,3.71c.34,1.21,1.73,1.33,1.82,2.21C426.18,15.32,425.54,16.27,422.64,17.66Z" id="el_TSuhM4khcBz"/><polygon points="433.15 4.57 438.49 8.17 435.07 11.43 431.93 9.32 433.15 4.57" id="el_jDF7bvwy6mB"/><g id="el_bI6fKwewarq"><polygon points="422.59 2.03 443.1 15.85 428.97 39.98 408.46 26.16 422.59 2.03" id="el_LTpWtQ3eLkQ"/><polygon points="431.84 31.53 416.21 20.99 420.73 13.28 436.36 23.81 431.84 31.53" id="el_txJXp5IosEA"/></g><path d="M424,23.5c.92-1.57,2.25-2.44,3-1.95s.58,2.16-.34,3.73-2.25,2.44-3,1.95S423.05,25.07,424,23.5Z" id="el_FGy6RrmAOmU"/><g id="el_W-_PhJJ9Hta"><path d="M435.59,3.24a3.45,3.45,0,0,0,.35,2c.49-.55.91-1,1.28-1.49-.21.55-.44,1.18-.7,1.89a2.87,2.87,0,0,0,1.8-.52c1.52-1.12,1.53-3.71,1.18-4.7a.29.29,0,0,0,0-.23.25.25,0,0,0-.12-.08.25.25,0,0,0-.12-.09.24.24,0,0,0-.21.07A4.24,4.24,0,0,0,435.59,3.24Z" id="el_0aRxRYhcb_k"/><path d="M436.13,3a2.47,2.47,0,0,0,.25,1.41l.92-1.07c-.15.39-.32.84-.5,1.35a2.05,2.05,0,0,0,1.29-.37A3.35,3.35,0,0,0,438.93,1a.21.21,0,0,0,0-.16.18.18,0,0,0-.09-.05.18.18,0,0,0-.08-.06.17.17,0,0,0-.15,0A3,3,0,0,0,436.13,3Z" id="el_I_l91qir_RO"/></g></g></g></g></g></g></g></svg>